<?xml version="1.0" standalone="no"?>
<!DOCTYPE svg PUBLIC "-//W3C//DTD SVG 20010904//EN"
 "http://www.w3.org/TR/2001/REC-SVG-20010904/DTD/svg10.dtd">
<svg version="1.0" xmlns="http://www.w3.org/2000/svg"
 width="827.000000pt" height="827.000000pt" viewBox="0 0 827.000000 827.000000"
 preserveAspectRatio="xMidYMid meet">
<metadata>
Created by potrace 1.14, written by Peter Selinger 2001-2017
</metadata>
<g transform="translate(0.000000,827.000000) scale(0.100000,-0.100000)"
fill="#000000" stroke="none">
<path d="M3928 7160 c-31 -27 -62 -50 -68 -50 -10 0 -10 3 0 15 8 9 9 15 2 15
-6 0 -13 -4 -17 -9 -3 -6 -227 -10 -548 -10 -299 0 -551 -3 -560 -7 -11 -4
-34 8 -68 37 -32 27 -48 35 -41 23 6 -11 18 -26 26 -34 21 -17 20 -27 -1 -27
-10 1 -77 0 -149 -1 l-132 -2 -45 -72 c-24 -40 -71 -119 -104 -175 -33 -56
-63 -100 -67 -98 -3 3 -4 2 -1 -1 6 -9 -34 -84 -45 -84 -6 0 -10 -7 -10 -15 0
-9 -17 -44 -38 -78 -21 -35 -41 -71 -45 -80 -3 -9 -11 -17 -17 -17 -6 0 -9 -4
-5 -9 3 -5 -2 -16 -10 -24 -8 -9 -15 -23 -15 -32 0 -9 -4 -14 -9 -11 -9 6 -21
-14 -27 -43 -1 -7 -7 -18 -13 -24 -6 -6 -11 -19 -11 -29 0 -26 -12 -22 -50 17
-44 46 -51 37 -10 -15 l32 -41 -27 -54 c-15 -30 -34 -56 -42 -60 -8 -3 -13
-12 -9 -20 7 -18 -10 -20 -18 -2 -4 8 -5 7 -5 -3 2 -33 -2 -42 -15 -37 -10 4
-13 1 -9 -9 3 -8 -1 -22 -8 -31 -12 -14 -12 -16 1 -9 13 7 13 6 0 -6 -8 -7
-16 -20 -18 -28 -2 -8 -8 -16 -13 -18 -5 -2 -9 -11 -9 -20 0 -8 -3 -12 -7 -9
-9 10 -42 -43 -36 -58 2 -7 0 -16 -6 -20 -6 -3 -20 -26 -31 -51 -13 -27 -25
-42 -32 -38 -7 4 -8 3 -4 -4 9 -14 -24 -73 -36 -66 -5 3 -7 2 -6 -3 4 -14 -13
-53 -23 -53 -5 0 -9 -8 -9 -17 -1 -19 -24 -56 -31 -49 -2 2 -11 -3 -19 -12
-13 -14 -12 -15 3 -9 15 6 15 2 -5 -26 -13 -17 -21 -33 -20 -35 2 -2 0 -7 -4
-10 -4 -4 -4 -1 1 7 5 10 4 12 -4 7 -6 -4 -9 -11 -6 -16 8 -14 -14 -52 -26
-45 -5 4 -8 3 -7 -2 4 -16 -24 -85 -31 -75 -4 7 -11 4 -19 -8 -10 -16 -9 -18
4 -13 14 5 14 3 3 -15 -7 -11 -17 -18 -21 -16 -5 3 -8 2 -7 -3 4 -22 -2 -43
-11 -38 -5 3 -7 0 -4 -8 9 -25 -11 -27 -37 -4 -66 59 -71 60 -32 8 l41 -54
-18 -31 c-74 -130 -106 -177 -115 -168 -5 4 -5 1 0 -7 5 -9 0 -20 -16 -33 -13
-11 -18 -16 -10 -12 9 4 12 2 9 -7 -3 -8 -11 -13 -17 -11 -7 1 -10 -2 -6 -8 9
-14 -26 -69 -48 -76 -13 -4 -15 -9 -7 -19 8 -9 4 -19 -15 -36 -13 -13 -25 -32
-25 -42 0 -18 -38 -79 -53 -85 -4 -2 -5 -8 -1 -13 3 -5 0 -9 -5 -9 -6 0 -10
-3 -9 -7 3 -15 -25 -62 -34 -57 -5 3 -8 2 -7 -3 1 -4 0 -11 -1 -15 -1 -5 -3
-14 -4 -20 -1 -7 -8 -12 -15 -10 -7 1 -10 -2 -6 -8 3 -6 -10 -37 -29 -69 -20
-32 -36 -61 -36 -63 0 -5 -99 -188 -107 -197 -1 -2 -11 3 -21 12 -29 26 -38
20 -13 -7 l23 -25 -32 -58 -33 -59 42 -73 c22 -40 41 -75 41 -79 0 -3 -10 -16
-22 -29 -17 -19 -19 -23 -5 -17 9 3 17 10 17 15 0 23 27 5 45 -28 11 -21 40
-71 64 -111 35 -60 41 -76 30 -83 -11 -7 -11 -9 -1 -9 20 0 44 -28 36 -42 -4
-7 -4 -10 1 -6 11 11 48 -51 41 -69 -3 -8 -2 -12 3 -8 11 6 52 -57 54 -84 0
-11 4 -18 8 -16 3 3 12 -8 20 -23 7 -15 21 -37 31 -50 9 -13 14 -30 11 -39 -4
-10 -2 -14 4 -10 6 4 14 0 17 -9 4 -10 2 -13 -7 -8 -6 4 5 -12 26 -35 26 -28
37 -50 34 -62 -3 -10 -1 -17 3 -14 11 7 56 -66 52 -84 -2 -7 1 -10 7 -6 6 3
11 -1 11 -9 0 -9 5 -16 11 -16 5 0 8 -4 5 -9 -3 -5 1 -12 10 -15 8 -3 12 -10
9 -16 -3 -5 -1 -10 5 -10 6 0 9 -4 6 -9 -3 -5 1 -12 10 -15 8 -3 12 -10 9 -16
-4 -6 -11 -7 -17 -4 -7 5 -8 2 -4 -5 5 -7 11 -10 14 -7 7 7 32 -13 32 -26 0
-5 -5 -6 -10 -3 -16 10 -11 -1 7 -16 14 -12 16 -12 8 0 -5 10 -4 12 3 7 16 -9
15 -31 -1 -48 -62 -68 -67 -85 -12 -38 20 17 59 24 49 8 -3 -4 0 -8 6 -8 7 0
10 -7 6 -15 -3 -9 3 -19 15 -25 11 -6 17 -15 14 -19 -2 -5 2 -14 10 -21 8 -7
12 -16 9 -21 -3 -5 -1 -9 3 -9 14 0 41 -54 35 -69 -3 -8 0 -11 7 -7 7 5 11 -1
11 -14 0 -14 4 -19 12 -14 8 5 9 2 5 -9 -3 -9 -3 -16 1 -16 20 3 23 -3 11 -18
-12 -15 -12 -16 4 -10 11 4 16 3 12 -3 -3 -6 0 -13 9 -16 9 -3 12 -12 9 -21
-4 -10 -2 -14 5 -9 10 6 29 -29 24 -46 -1 -5 2 -8 7 -8 14 0 42 -60 34 -73 -3
-5 -1 -7 5 -3 6 3 13 2 17 -4 3 -5 1 -10 -6 -10 -7 0 -3 -8 7 -17 31 -28 66
-91 58 -105 -4 -7 -4 -10 1 -6 11 11 38 -29 29 -44 -4 -6 -3 -8 4 -4 6 3 14
-4 17 -16 4 -13 17 -33 28 -45 11 -13 17 -26 14 -30 -4 -3 2 -13 13 -20 11 -8
18 -19 15 -24 -4 -5 -1 -9 5 -9 6 0 8 -4 5 -10 -3 -5 -2 -10 4 -10 6 0 7 -7 4
-17 -4 -11 -3 -14 6 -9 8 5 14 1 18 -13 3 -12 9 -21 13 -21 4 0 13 -14 20 -30
10 -24 10 -33 -1 -48 -11 -14 -11 -15 1 -4 22 19 32 14 19 -10 -11 -20 -11
-22 3 -10 31 25 31 -9 1 -41 -60 -66 -66 -80 -18 -40 37 32 52 39 62 31 10 -8
11 -14 2 -25 -10 -11 -9 -12 5 -7 11 4 16 1 16 -10 0 -9 5 -16 11 -16 5 0 8
-4 5 -9 -3 -5 1 -14 10 -22 20 -17 41 -54 24 -44 -9 6 -9 2 -1 -14 7 -11 16
-21 21 -21 6 0 10 -7 10 -16 0 -9 -5 -12 -12 -8 -7 4 -8 3 -4 -4 4 -6 12 -9
19 -6 10 3 62 -76 62 -96 0 -3 9 -19 20 -35 23 -34 18 -27 119 -195 41 -69 90
-147 108 -175 l33 -50 178 -3 c152 -2 202 -9 170 -24 -5 -2 -19 -16 -33 -33
l-25 -29 25 17 c14 9 42 28 62 42 l37 25 486 -1 c345 0 483 -4 479 -11 -5 -7
-2 -8 6 -3 30 19 61 10 103 -28 66 -61 86 -65 38 -9 -43 52 -39 68 10 42 13
-7 19 -7 19 0 0 6 64 10 185 10 120 0 185 -4 185 -10 0 -6 13 -4 31 5 29 15
30 15 20 -2 -5 -10 -25 -34 -45 -52 -59 -57 -41 -57 24 -1 35 31 64 49 71 44
8 -4 9 -3 5 4 -8 13 6 17 18 5 11 -11 37 -12 30 -1 -4 6 170 8 490 7 324 -1
496 -6 496 -12 0 -6 3 -7 6 -4 4 3 32 -15 63 -41 52 -43 50 -37 -7 27 -27 31
-28 43 -3 33 11 -4 93 -5 182 -2 l163 5 81 135 c44 74 104 178 134 230 29 52
57 97 61 100 4 3 20 30 36 60 16 30 31 57 34 60 3 3 11 17 19 33 8 15 18 27
23 27 5 0 6 5 3 10 -3 6 1 13 9 16 9 3 13 10 10 15 -3 5 5 22 19 38 26 31 39
29 85 -12 34 -32 26 -9 -13 34 -37 41 -45 65 -20 55 8 -3 15 -1 15 4 0 6 -6
10 -12 11 -7 0 -3 5 10 11 12 6 23 16 24 22 0 6 2 16 2 21 3 25 38 85 46 80 6
-4 7 2 3 11 -5 13 -3 15 7 9 8 -5 11 -4 7 2 -3 5 10 36 29 69 18 32 46 83 60
112 16 30 33 52 43 52 14 0 14 2 1 10 -13 9 -8 14 12 11 4 0 5 8 3 19 -4 23 5
26 25 7 12 -10 12 -9 0 6 -11 16 -10 20 7 32 14 10 19 22 16 35 -3 12 0 20 6
20 7 0 9 5 5 12 -4 6 -3 8 3 5 6 -4 14 0 17 9 3 8 10 13 14 10 4 -2 7 8 6 25
-1 16 1 29 5 29 4 0 13 16 21 35 7 19 17 32 22 29 5 -3 7 -2 6 3 -5 21 15 54
29 48 13 -5 14 -3 3 10 -11 13 -11 16 1 13 8 -2 13 3 11 10 -3 19 17 52 30 49
7 -1 13 3 13 8 1 6 5 19 9 30 18 47 30 65 45 65 10 0 12 3 5 8 -7 5 -7 14 1
29 l12 23 33 -25 c52 -39 55 -32 8 21 -28 32 -30 37 -15 46 9 5 17 14 17 19 0
14 79 148 102 175 10 11 15 24 11 27 -3 4 -1 7 5 7 7 0 12 7 12 16 0 9 5 12
12 8 8 -5 9 -2 5 9 -4 10 -1 17 5 17 6 0 9 3 5 6 -3 3 10 31 29 62 19 32 34
63 34 70 0 7 5 10 10 7 6 -3 10 2 10 12 1 24 25 55 35 45 5 -4 5 -1 1 6 -5 8
-1 21 7 30 9 9 17 22 19 27 2 6 7 9 12 7 5 -2 6 4 2 13 -4 10 4 26 22 42 15
15 21 23 15 19 -7 -4 -13 -2 -13 3 0 6 5 11 10 11 6 0 10 7 10 15 0 8 4 15 9
15 5 0 11 9 14 21 4 13 10 18 18 13 8 -4 10 -3 5 5 -8 12 14 71 26 71 5 0 7 4
5 8 -1 5 12 31 29 58 17 27 43 70 58 97 27 47 39 56 51 37 3 -5 11 -10 17 -10
6 0 1 11 -12 25 -21 22 -22 26 -8 42 8 10 29 43 46 73 l31 56 -30 53 c-34 63
-35 68 -11 95 17 20 17 20 -11 2 -16 -10 -30 -16 -31 -14 0 2 -13 28 -28 58
-39 78 -81 153 -96 169 -7 7 -11 20 -8 28 3 8 2 12 -2 9 -5 -3 -18 13 -30 35
-12 22 -16 36 -9 32 7 -4 -5 13 -25 37 -21 24 -36 45 -33 48 2 2 -3 11 -11 20
-13 12 -13 16 -2 23 10 7 9 9 -3 9 -14 0 -30 21 -30 40 0 3 -6 12 -13 20 -7 8
-11 25 -10 38 1 17 -2 20 -12 12 -9 -8 -14 -5 -19 12 -4 12 -14 29 -23 37 -11
11 -11 16 -3 19 8 3 4 10 -9 19 -12 8 -38 49 -57 92 -20 42 -42 80 -50 84 -7
4 -13 17 -13 27 0 11 -5 20 -12 20 -6 0 -9 3 -5 6 3 3 -3 16 -14 27 -14 16
-16 23 -7 29 9 5 7 8 -6 8 -12 0 -16 5 -12 16 3 8 2 13 -3 10 -5 -3 -12 2 -15
11 -4 10 5 30 24 55 32 40 27 54 -6 17 -10 -11 -27 -25 -38 -31 -16 -9 -18 -7
-14 10 4 13 0 23 -9 26 -9 4 -13 13 -9 23 4 10 4 14 0 10 -7 -7 -45 47 -48 68
-1 5 -5 16 -9 23 -5 6 -6 16 -3 20 2 4 0 14 -6 22 -8 12 -9 12 -4 -2 8 -26 -6
-21 -27 8 -10 14 -16 32 -13 40 3 8 2 13 -3 10 -5 -3 -15 2 -22 11 -12 14 -12
16 1 9 8 -4 7 -1 -3 7 -9 8 -15 21 -12 30 4 8 -2 21 -12 29 -29 22 -65 78 -59
94 3 8 -1 14 -9 14 -8 0 -14 3 -14 8 3 19 -2 33 -10 28 -5 -3 -15 9 -22 27 -7
17 -19 38 -27 46 -7 8 -11 22 -9 33 3 10 1 16 -4 12 -5 -3 -9 1 -9 10 0 8 -3
16 -7 18 -9 4 -53 65 -53 73 0 3 5 3 12 -1 7 -4 8 -3 4 5 -4 6 -11 9 -15 7 -4
-3 -13 5 -21 17 -12 21 -12 21 6 7 10 -8 6 0 -9 18 -15 19 -24 39 -21 44 4 6
3 8 -2 5 -5 -3 -17 8 -27 24 -10 18 -12 27 -4 24 6 -4 1 2 -12 13 -13 11 -21
24 -17 31 4 6 3 11 -2 11 -5 0 -20 20 -33 44 l-23 45 34 47 c34 48 27 50 -23
4 -33 -29 -42 -29 -43 1 -1 12 -9 26 -18 31 -9 5 -14 13 -11 19 4 5 2 9 -3 9
-5 0 -12 8 -16 18 -3 9 -20 42 -37 72 -28 48 -35 65 -38 104 -1 5 -8 3 -16 -4
-13 -11 -15 -9 -15 13 0 14 -6 27 -14 30 -8 3 -23 23 -32 44 -10 21 -24 44
-31 51 -18 18 -16 22 5 15 11 -3 9 0 -6 11 -12 10 -19 22 -16 28 4 6 2 8 -3 5
-6 -4 -53 67 -109 163 l-98 170 -131 1 c-71 1 -140 0 -152 -1 -13 -1 -23 3
-23 9 0 6 4 11 8 11 4 0 16 15 27 33 18 31 18 31 -28 -10 -49 -45 -77 -54 -77
-25 0 13 -2 14 -9 3 -6 -9 -10 -10 -16 -2 -4 8 -11 9 -18 2 -7 -5 -214 -10
-524 -10 -407 -1 -513 1 -513 11 0 9 -3 8 -10 -2 -6 -10 -10 -11 -10 -2 0 6
-4 12 -10 12 -5 0 -7 -7 -4 -15 12 -29 -18 -14 -70 35 -63 60 -79 65 -37 11
17 -21 31 -41 31 -44 0 -2 -80 -5 -177 -6 -98 -1 -173 2 -167 6 6 5 13 15 17
23 4 8 14 25 23 38 25 33 14 27 -48 -28z m-918 -370 l95 -90 -247 0 -247 0
-20 -29 c-12 -16 -21 -32 -21 -35 0 -3 -14 -29 -31 -58 -18 -29 -45 -78 -62
-108 -17 -30 -38 -67 -49 -82 -10 -14 -18 -29 -18 -32 0 -5 -82 -147 -119
-206 -8 -14 -27 -45 -41 -70 -52 -95 -41 -93 -116 -19 l-67 67 32 45 c17 25
31 48 31 50 0 3 28 52 62 109 33 56 75 128 91 158 17 30 38 67 49 82 10 14 18
29 18 32 0 3 14 29 31 58 18 29 43 73 57 98 14 25 36 62 49 83 l23 37 203 0
202 0 95 -90z m560 5 c-47 -47 -80 -85 -75 -85 6 0 48 38 95 85 l85 85 434 0
434 0 91 -90 91 -90 -805 0 -806 0 -89 90 -90 90 360 0 360 0 -85 -85z m1615
-5 l-90 -90 -175 0 -175 0 -90 90 -90 90 355 0 355 0 -90 -90z m579 -12 c33
-57 79 -136 103 -175 24 -40 43 -74 43 -77 0 -2 24 -44 54 -93 29 -49 64 -109
78 -133 14 -25 42 -73 62 -107 20 -34 36 -65 36 -70 0 -10 -117 -123 -128
-123 -4 1 -14 15 -23 33 -8 18 -48 88 -87 155 -40 68 -72 127 -72 131 0 4 -5
12 -12 19 -7 7 -26 36 -43 66 -16 29 -61 108 -100 175 l-69 121 -245 0 -246 0
90 90 90 90 205 0 205 0 59 -102z m-2595 -380 l-54 -63 70 58 c38 31 75 55 82
52 7 -2 13 -1 13 4 0 20 52 6 87 -23 21 -17 47 -38 58 -46 19 -14 19 -14 6 5
-8 11 -26 33 -40 48 l-25 28 731 -2 c403 0 737 2 742 6 25 15 8 -14 -29 -50
-55 -54 -41 -57 21 -5 76 64 102 64 183 -5 36 -31 66 -54 66 -50 0 3 -21 28
-47 56 -49 52 -53 66 -13 45 18 -9 31 -10 49 -2 18 8 26 7 35 -5 8 -11 26 -15
61 -13 28 1 55 -2 60 -6 6 -4 22 -10 38 -14 47 -11 137 -56 137 -68 0 -6 3 -9
6 -5 10 9 92 -51 145 -105 26 -26 45 -48 43 -48 -2 0 5 -9 16 -20 11 -11 20
-25 20 -31 0 -6 7 -9 15 -5 9 3 15 0 15 -8 0 -7 9 -25 21 -40 11 -14 15 -26 9
-26 -6 0 -8 -5 -5 -10 4 -6 12 -7 18 -4 7 4 9 4 5 -1 -4 -4 4 -23 19 -41 14
-19 22 -34 17 -34 -4 0 2 -10 13 -22 11 -13 30 -42 42 -65 11 -22 26 -43 33
-46 9 -3 5 -13 -12 -33 -73 -83 -76 -93 -15 -44 28 22 41 27 51 19 7 -6 10
-18 7 -26 -4 -11 -2 -14 5 -9 7 4 18 -7 29 -31 10 -21 22 -41 27 -44 5 -4 5
-13 1 -20 -5 -8 -5 -11 0 -7 4 4 14 0 21 -10 17 -22 18 -35 2 -27 -7 4 -6 1 3
-7 27 -23 51 -67 43 -79 -4 -7 -3 -9 3 -6 12 8 27 -20 24 -42 -1 -7 2 -10 8
-6 6 3 15 -4 20 -17 5 -13 25 -43 45 -68 64 -81 38 -63 -85 57 -66 65 -125
120 -131 122 -6 2 -2 -5 8 -16 109 -114 265 -283 265 -288 -1 -3 8 -14 20 -26
13 -13 18 -27 14 -40 -4 -11 -2 -19 5 -19 6 0 8 5 5 10 -3 6 -2 10 4 10 5 0
12 -13 16 -30 4 -16 10 -30 15 -30 13 0 41 -61 33 -73 -3 -6 -1 -7 5 -3 6 3
16 -3 22 -14 6 -11 8 -20 4 -20 -4 0 2 -10 13 -22 29 -33 39 -53 22 -44 -8 4
-6 1 3 -7 16 -13 16 -15 0 -32 -16 -18 -16 -18 1 -6 9 8 21 11 24 7 4 -4 1
-12 -7 -17 -13 -9 -12 -10 2 -6 21 7 52 -38 43 -61 -3 -9 -3 -13 1 -10 3 4 13
0 21 -8 14 -13 12 -19 -16 -54 -42 -53 -39 -58 11 -18 23 18 39 28 35 22 -3
-6 4 -24 17 -39 30 -34 101 -176 98 -193 -2 -7 2 -11 8 -10 13 3 62 -77 53
-86 -4 -3 -1 -6 6 -6 7 0 9 -4 6 -10 -3 -5 -2 -10 4 -10 6 0 7 -7 4 -17 -5
-12 -3 -14 7 -8 10 6 11 4 4 -6 -11 -18 -6 -50 11 -69 8 -9 17 -35 21 -58 4
-23 10 -44 13 -47 4 -2 4 -29 1 -59 -3 -31 -2 -52 3 -49 5 3 7 -3 4 -13 -3
-11 -9 -47 -12 -82 -5 -44 -11 -62 -20 -59 -8 4 -12 -4 -12 -21 0 -15 -4 -38
-8 -52 -4 -14 -7 -35 -7 -47 0 -13 -4 -20 -9 -17 -8 5 -14 -17 -10 -39 1 -4
-6 -10 -14 -13 -8 -4 -15 -12 -15 -20 0 -8 -5 -14 -11 -14 -5 0 -7 -5 -4 -10
3 -5 2 -10 -4 -10 -6 0 -7 -7 -4 -17 4 -10 2 -14 -4 -10 -6 4 -14 -3 -18 -16
-9 -27 -9 -26 -25 -59 -7 -15 -18 -25 -23 -21 -6 4 -8 0 -4 -11 4 -10 1 -19
-8 -22 -8 -4 -12 -10 -9 -15 3 -5 -2 -12 -10 -15 -9 -3 -13 -11 -10 -16 4 -6
0 -14 -7 -19 -8 -4 -15 -13 -15 -19 -6 -50 -19 -56 -54 -26 -34 28 -54 29 -26
1 9 -9 21 -25 26 -35 13 -24 10 -31 -80 -185 -13 -22 -32 -57 -42 -78 -10 -21
-23 -35 -28 -32 -5 3 -12 0 -16 -6 -4 -8 -3 -9 4 -5 23 14 12 -9 -15 -32 -16
-13 -22 -21 -16 -17 17 8 4 -25 -17 -45 -10 -9 -10 -11 -1 -5 12 9 12 7 1 -15
-7 -14 -16 -27 -19 -30 -4 -3 -15 -25 -26 -50 -13 -28 -64 -91 -140 -170 -135
-141 -171 -180 -164 -180 3 0 32 25 64 55 47 43 61 52 68 40 9 -17 -8 -55 -25
-55 -6 0 -8 -3 -5 -6 9 -9 -34 -84 -44 -78 -5 3 -6 -2 -3 -10 3 -9 2 -16 -4
-16 -5 0 -13 -11 -16 -25 -4 -14 -10 -24 -15 -21 -4 3 -8 -8 -9 -25 0 -17 -3
-33 -5 -35 -2 -3 -27 16 -56 42 -61 55 -66 49 -11 -13 49 -56 50 -72 7 -64 -5
1 -6 -3 -2 -9 3 -6 11 -7 17 -4 5 4 -1 -13 -14 -36 -12 -23 -31 -45 -40 -47
-10 -3 -18 -10 -18 -15 0 -5 5 -6 10 -3 6 4 5 -4 -1 -19 -7 -14 -16 -23 -20
-20 -5 3 -6 -1 -4 -8 3 -8 -3 -23 -14 -35 -11 -11 -17 -24 -13 -28 4 -4 3 -6
-3 -5 -24 5 -33 -2 -31 -25 2 -13 0 -22 -5 -20 -4 3 -10 1 -14 -5 -4 -6 -11
-7 -17 -4 -6 4 -8 -1 -4 -13 5 -15 -2 -26 -28 -44 -20 -13 -41 -34 -47 -46 -7
-13 -14 -21 -17 -19 -2 3 -18 -8 -35 -24 -36 -33 -160 -100 -187 -100 -10 0
-22 -5 -26 -11 -4 -6 -19 -9 -38 -5 -24 5 -27 3 -16 -5 12 -8 9 -10 -13 -6
-16 3 -42 -2 -58 -10 -16 -8 -33 -12 -39 -8 -5 3 -10 0 -10 -7 0 -9 -3 -9 -10
2 -6 11 -3 22 13 40 71 79 57 79 -28 0 -35 -33 -68 -60 -73 -60 -4 0 -15 9
-25 20 -9 11 -22 20 -29 20 -7 0 -4 -6 5 -12 15 -11 10 -13 -34 -16 -33 -2
-48 1 -44 8 3 5 1 10 -4 10 -6 0 -11 -7 -11 -15 0 -20 -15 -12 -67 35 -56 51
-73 64 -73 54 0 -5 19 -28 41 -51 39 -42 39 -54 -2 -33 -13 8 -19 7 -19 0 0
-8 -192 -10 -650 -9 -720 1 -661 -5 -601 61 44 49 18 38 -43 -18 -64 -59 -81
-66 -71 -31 5 17 4 19 -4 7 -6 -8 -11 -11 -11 -5 0 5 -5 4 -12 -3 -8 -8 -15
-9 -25 -1 -9 9 -13 8 -13 0 0 -8 -11 -10 -35 -5 -23 4 -35 2 -35 -5 0 -18 -28
1 -104 70 -38 35 -64 55 -59 44 6 -11 21 -29 33 -40 29 -26 68 -81 49 -70 -7
5 -34 11 -59 12 -41 3 -88 14 -130 30 -22 9 -21 9 -72 23 -27 8 -48 17 -48 21
0 4 -13 12 -29 19 -16 6 -32 18 -35 27 -3 8 -10 11 -16 8 -5 -3 -10 0 -10 7 0
24 -21 38 -42 27 -10 -5 -18 -6 -17 -2 4 21 -2 33 -17 33 -11 0 -15 6 -11 20
3 10 -1 24 -9 31 -8 6 -14 8 -14 4 0 -4 -13 6 -29 23 -16 16 -32 28 -35 24 -4
-3 -5 5 -4 19 2 16 -2 23 -10 21 -8 -1 -11 2 -8 7 8 12 -4 42 -14 36 -5 -3
-18 7 -29 21 -16 21 -19 30 -10 41 10 11 8 12 -7 6 -17 -6 -18 -5 -4 12 10 12
10 16 2 11 -15 -9 -45 12 -36 25 3 5 -2 12 -10 15 -9 3 -16 14 -16 23 0 9 -7
24 -15 35 -13 17 -10 24 32 72 25 30 43 54 40 54 -2 0 -26 -20 -53 -44 -26
-25 -52 -42 -57 -39 -4 2 -3 11 3 18 8 10 8 15 -1 21 -8 5 -10 3 -5 -7 4 -8 1
-6 -7 4 -8 10 -14 29 -12 43 2 18 -1 22 -10 14 -9 -8 -14 -5 -18 10 -3 11 -5
22 -4 24 1 2 -7 14 -18 26 -16 18 -17 23 -5 32 12 8 12 9 -2 4 -13 -4 -22 3
-33 25 -9 16 -13 34 -10 39 3 6 0 10 -7 10 -8 0 -22 14 -31 30 -21 35 -6 41
17 8 9 -12 16 -19 16 -16 0 4 10 -3 23 -15 65 -63 146 -135 158 -142 8 -4 -29
37 -82 91 -200 206 -257 270 -264 297 -9 36 -18 57 -25 57 -8 0 -33 55 -30 66
1 4 -5 11 -14 16 -9 5 -14 13 -11 19 4 5 2 9 -4 9 -5 0 -13 10 -17 23 -4 12
-10 24 -13 27 -18 14 -61 92 -56 100 3 6 2 10 -2 10 -5 0 -17 14 -27 31 -13
22 -14 29 -5 24 8 -5 -1 6 -18 24 -34 33 -41 51 -22 51 5 0 7 5 3 11 -4 8 -9
7 -15 -2 -6 -11 -9 -10 -15 4 -4 12 4 31 25 57 41 51 39 59 -4 21 -41 -36 -60
-40 -52 -11 3 13 0 20 -9 20 -8 0 -14 5 -14 11 0 6 -12 26 -26 45 -14 18 -24
40 -21 47 3 8 1 20 -5 28 -8 11 -8 9 -4 -6 6 -20 6 -20 -9 -1 -12 16 -12 22
-2 35 10 12 9 14 -5 8 -20 -7 -44 26 -32 45 4 7 3 8 -4 4 -7 -4 -13 -2 -13 3
-1 6 -2 15 -3 21 0 5 -9 18 -18 29 -9 11 -14 21 -12 24 2 2 -2 10 -11 17 -8 7
-15 23 -15 36 0 12 -5 26 -11 29 -6 4 -8 20 -4 38 4 21 3 27 -3 19 -7 -11 -11
-9 -15 8 -3 12 -4 31 -2 42 4 17 2 18 -12 6 -15 -12 -15 -11 -4 10 9 16 9 22
0 22 -8 0 -10 13 -6 40 3 23 1 38 -4 34 -5 -3 -9 11 -9 31 0 26 -3 34 -12 29
-9 -5 -9 -3 1 9 7 9 11 28 9 42 -3 16 -1 25 7 25 7 0 12 10 12 23 -1 57 3 78
14 71 8 -5 8 -1 0 13 -7 15 -6 25 4 40 8 11 11 24 7 28 -4 5 2 5 12 1 15 -5
17 -4 7 8 -9 11 -7 22 10 52 11 22 25 44 30 50 5 6 6 14 2 17 -7 8 17 38 26
33 3 -2 7 8 8 22 0 14 8 31 17 38 9 6 16 16 15 20 -4 16 13 44 22 38 5 -3 6 3
2 12 -4 12 -3 15 5 10 8 -5 10 -2 6 8 -3 9 -2 16 3 16 5 0 17 18 27 39 19 44
32 45 73 8 37 -34 35 -13 -3 31 l-35 42 23 22 c13 13 24 32 26 42 5 27 33 67
42 61 5 -3 12 0 16 6 4 8 3 9 -4 5 -17 -10 -15 -1 8 36 11 18 25 33 32 33 6 0
13 7 15 15 4 13 3 13 -6 0 -12 -17 -14 -10 -5 14 3 9 10 14 14 11 4 -3 11 2
14 11 4 10 2 13 -7 8 -8 -5 -7 -2 2 9 7 10 24 36 37 60 12 23 27 41 33 40 5
-2 8 6 6 17 -2 11 1 19 8 17 7 -1 11 4 9 12 -3 14 30 52 163 191 44 47 99 105
120 130 l39 45 -44 -40 c-53 -48 -54 -49 -154 -145 -43 -41 -75 -68 -71 -60
16 27 74 115 88 131 7 8 11 21 9 29 -3 7 0 10 6 6 5 -3 13 1 16 10 4 10 2 13
-7 9 -6 -4 -4 0 6 8 9 8 17 21 17 29 0 9 12 23 26 33 17 11 22 20 16 24 -7 4
2 27 27 63 21 32 41 55 44 52 3 -3 3 3 1 13 -3 11 1 25 9 31 11 10 23 6 56
-18 22 -17 41 -28 41 -26 0 2 -16 23 -35 47 -34 43 -45 66 -25 54 6 -3 10 1
10 10 0 9 5 25 11 36 9 17 13 18 27 7 13 -11 14 -11 7 2 -15 24 -14 38 2 44 8
3 11 10 8 16 -3 5 -2 10 3 10 6 0 13 11 16 25 4 14 11 23 16 20 6 -3 10 3 10
14 0 11 9 25 20 31 11 6 17 16 14 25 -4 8 1 17 9 21 9 3 14 11 11 18 -3 8 4
12 18 12 18 -1 23 4 22 22 -1 12 2 22 7 22 5 0 15 13 24 30 8 16 21 29 27 27
6 -1 17 9 25 23 7 14 13 21 13 16 0 -5 9 2 19 16 11 13 35 33 55 43 20 11 36
23 36 26 0 4 15 11 33 15 17 3 43 15 57 26 15 12 32 17 47 13 13 -3 23 -1 23
4 0 16 55 30 75 19 13 -8 16 -7 11 1 -5 7 3 11 23 11 16 0 32 4 36 9 3 6 17 6
35 0 23 -8 34 -7 52 5 40 28 31 8 -23 -56z m-1079 -594 c-56 -99 -110 -192
-120 -209 -9 -16 -77 -133 -150 -260 -73 -126 -149 -260 -169 -297 -20 -38
-41 -68 -46 -68 -6 0 -37 27 -70 60 l-60 61 19 32 c10 18 26 46 36 62 9 17 95
165 190 330 95 165 187 325 203 355 17 30 33 57 36 60 4 3 19 30 35 60 16 30
34 62 41 70 7 8 15 24 19 34 6 18 15 12 73 -46 l66 -66 -103 -178z m4107 226
c17 -30 72 -127 123 -215 51 -88 101 -173 110 -190 10 -16 31 -54 49 -83 17
-29 31 -55 31 -57 0 -2 22 -39 49 -83 27 -44 62 -104 78 -133 52 -94 76 -134
91 -151 13 -16 8 -24 -48 -83 -35 -36 -66 -65 -69 -65 -5 0 -25 31 -86 139
-33 57 -103 178 -171 294 -35 59 -64 111 -64 114 0 4 -6 14 -14 22 -7 9 -28
43 -46 76 -17 33 -71 128 -119 210 l-87 150 60 66 c68 74 67 75 113 -11z m608
-1052 c32 -57 72 -128 90 -158 18 -30 55 -94 84 -143 28 -48 51 -89 51 -91 0
-2 32 -56 70 -120 39 -65 70 -119 70 -120 0 -6 68 -116 80 -132 7 -8 11 -16 8
-19 -2 -2 -113 105 -245 238 -236 236 -243 245 -306 357 -35 64 -70 126 -78
138 -13 20 -9 26 51 87 35 36 65 65 66 65 1 0 27 -46 59 -102z m-5270 32 l59
-60 -22 -42 c-13 -24 -28 -52 -35 -63 -7 -11 -30 -54 -52 -95 -34 -65 -72
-108 -279 -317 -223 -226 -286 -283 -238 -215 11 15 33 50 48 77 35 62 192
334 204 355 46 77 90 153 90 156 0 2 14 27 31 56 18 29 43 73 57 98 13 25 30
52 37 60 6 8 15 23 18 33 4 9 10 17 14 17 5 0 35 -27 68 -60z m-257 -614 c-62
-108 -125 -218 -139 -243 l-27 -46 29 -49 c16 -27 29 -51 29 -54 0 -3 8 -18
18 -32 11 -15 33 -52 49 -82 51 -92 215 -374 226 -388 5 -7 8 -15 5 -17 -2 -3
-112 104 -244 238 -191 193 -247 255 -275 307 -18 36 -34 71 -34 78 0 11 466
491 473 486 1 0 -48 -90 -110 -198z m5990 -359 c-36 -67 -74 -109 -280 -315
-132 -130 -242 -239 -245 -242 -6 -5 19 42 37 70 22 35 90 152 90 155 0 2 32
56 70 121 39 64 70 118 70 120 0 2 21 38 46 79 40 65 45 80 35 98 -21 42 -67
122 -94 164 -15 24 -27 45 -27 49 0 3 -8 18 -18 32 -11 15 -33 52 -49 82 -17
30 -43 78 -58 105 -23 42 13 10 219 -196 l246 -245 -42 -77z m-597 316 c13
-16 12 -17 -3 -4 -10 7 -18 15 -18 17 0 8 8 3 21 -13z m-5131 -988 c8 -16 30
-54 48 -84 l34 -53 -63 -64 c-35 -35 -66 -64 -69 -64 -4 0 -14 15 -23 33 -9
17 -29 55 -45 82 -126 216 -218 376 -235 405 -10 19 -23 40 -27 45 -7 9 -20
32 -95 170 -23 42 13 9 217 -195 134 -135 250 -258 258 -275z m5604 459 c-38
-70 -94 -165 -116 -196 -10 -15 -18 -29 -18 -32 0 -3 -14 -29 -31 -58 -18 -29
-45 -78 -62 -108 -17 -30 -38 -67 -49 -82 -10 -14 -18 -29 -18 -32 0 -4 -86
-153 -119 -206 -7 -12 -20 -4 -70 45 -63 61 -72 83 -46 105 8 7 15 16 15 21 0
4 16 36 36 71 26 45 102 128 267 295 127 128 232 231 234 229 2 -2 -8 -26 -23
-52z m-5469 -692 c11 -21 27 -48 36 -62 9 -14 29 -50 46 -80 29 -54 84 -150
103 -180 8 -14 144 -250 201 -350 14 -25 54 -92 87 -148 34 -57 62 -107 62
-111 0 -3 -29 -35 -64 -70 l-63 -63 -25 44 c-14 24 -35 59 -45 78 -29 50 -82
142 -92 160 -11 17 -245 425 -276 479 -40 70 -95 166 -105 181 -5 8 -17 28
-26 44 l-16 29 63 63 c71 72 70 72 114 -14z m4977 21 c32 -32 58 -62 58 -68 0
-10 -41 -88 -70 -135 -17 -26 -212 -363 -237 -410 -14 -25 -38 -65 -53 -90
-15 -25 -69 -119 -121 -210 -51 -91 -94 -167 -96 -170 -2 -2 -33 25 -69 61
l-65 65 87 150 c48 82 100 174 117 204 16 30 38 67 49 82 10 14 18 29 18 32 0
7 95 170 121 208 11 15 19 30 19 32 0 3 26 50 58 103 32 54 72 122 88 150 16
29 31 53 34 53 2 0 30 -26 62 -57z m-652 -463 c-8 -5 -11 -10 -7 -10 4 0 3
-10 -4 -21 -9 -17 -13 -19 -20 -8 -9 15 16 49 35 49 6 0 4 -5 -4 -10z m-3753
-547 c40 -72 61 -108 153 -268 51 -88 104 -180 118 -205 14 -25 35 -61 46 -80
12 -20 26 -45 32 -55 11 -19 23 -20 283 -20 149 0 271 -3 271 -6 0 -3 -40 -44
-89 -92 l-88 -87 -230 0 c-173 0 -233 3 -240 13 -6 6 -25 39 -43 72 -17 33
-35 65 -40 70 -4 6 -21 35 -37 65 -17 30 -72 127 -123 215 -51 88 -102 176
-113 195 -11 19 -26 44 -33 55 -8 11 -14 25 -14 33 0 12 108 129 121 131 3 1
15 -16 26 -36z m3865 -102 c-3 -9 -19 -38 -35 -66 -17 -27 -43 -75 -60 -105
-17 -30 -38 -67 -49 -82 -10 -14 -18 -29 -18 -33 0 -3 -13 -26 -30 -50 -16
-24 -30 -46 -30 -49 0 -3 -14 -29 -31 -58 -18 -29 -43 -73 -57 -98 -14 -25
-42 -72 -62 -105 l-37 -60 -236 0 -237 0 -85 85 c-47 46 -85 87 -85 90 0 3
123 4 272 2 l273 -2 58 102 c32 57 75 132 97 168 22 36 43 72 47 80 6 14 54
97 146 253 l40 68 63 -62 c43 -42 60 -67 56 -78z m-3457 -41 c3 -5 1 -10 -4
-10 -6 0 -11 5 -11 10 0 6 2 10 4 10 3 0 8 -4 11 -10z m2115 -491 c0 -3 -40
-44 -89 -92 l-88 -87 -488 0 -488 0 -88 87 c-49 48 -89 89 -89 92 0 3 299 6
665 6 366 0 665 -3 665 -6z m-1273 -81 c46 -46 83 -86 83 -90 0 -5 -128 -8
-285 -8 -157 0 -285 3 -285 7 0 4 37 45 82 90 l83 83 120 0 120 0 82 -82z
m1633 -5 l83 -88 -288 -3 c-158 -1 -290 0 -293 3 -3 3 32 44 78 90 l85 85 125
0 126 0 84 -87z"/>
<path d="M5641 6097 c2 -1 13 -9 24 -17 19 -14 19 -14 6 3 -7 9 -18 17 -24 17
-6 0 -8 -1 -6 -3z"/>
<path d="M2900 5435 l0 -555 600 0 601 0 -3 -687 -3 -688 -24 -53 c-29 -64
-86 -115 -146 -132 -27 -7 -77 -11 -123 -8 -63 4 -92 11 -154 41 -88 43 -210
152 -316 282 -35 44 -67 78 -71 75 -6 -4 -121 -141 -439 -519 -81 -96 -191
-226 -245 -289 l-97 -114 49 -57 c249 -285 579 -464 1001 -542 146 -26 503
-37 660 -20 238 27 397 70 575 155 383 184 599 485 695 971 28 140 29 193 33
1593 l3 1102 -1298 0 -1298 0 0 -555z"/>
<path d="M6287 4989 c7 -7 15 -10 18 -7 3 3 -2 9 -12 12 -14 6 -15 5 -6 -5z"/>
<path d="M1861 3314 c0 -11 3 -14 6 -6 3 7 2 16 -1 19 -3 4 -6 -2 -5 -13z"/>
<path d="M6105 2902 c3 -3 -3 -14 -12 -25 -18 -19 -17 -19 4 -6 27 16 36 36
17 36 -8 0 -12 -3 -9 -5z"/>
<path d="M5675 2159 c-4 -6 -5 -12 -2 -15 2 -3 7 2 10 11 7 17 1 20 -8 4z"/>
<path d="M3217 1779 c7 -7 15 -10 18 -7 3 3 -2 9 -12 12 -14 6 -15 5 -6 -5z"/>
<path d="M4900 1770 c-13 -8 -12 -10 3 -10 9 0 17 5 17 10 0 12 -1 12 -20 0z"/>
<path d="M4981 1764 c0 -11 3 -14 6 -6 3 7 2 16 -1 19 -3 4 -6 -2 -5 -13z"/>
<path d="M6120 6650 c0 -5 5 -10 11 -10 5 0 7 5 4 10 -3 6 -8 10 -11 10 -2 0
-4 -4 -4 -10z"/>
<path d="M1358 5423 c7 -3 16 -2 19 1 4 3 -2 6 -13 5 -11 0 -14 -3 -6 -6z"/>
<path d="M1195 5119 c-4 -6 -5 -12 -2 -15 2 -3 7 2 10 11 7 17 1 20 -8 4z"/>
<path d="M1090 3266 c0 -2 8 -10 18 -17 15 -13 16 -12 3 4 -13 16 -21 21 -21
13z"/>
<path d="M6170 1639 c0 -5 5 -7 10 -4 6 3 10 8 10 11 0 2 -4 4 -10 4 -5 0 -10
-5 -10 -11z"/>
</g>
</svg>
